<?xml version="1.0" encoding="utf-8"?>
<!-- Generator: Adobe Illustrator 28.0.0, SVG Export Plug-In . SVG Version: 6.00 Build 0)  -->
<svg version="1.1" id="Logo_Speedex" xmlns="http://www.w3.org/2000/svg" xmlns:xlink="http://www.w3.org/1999/xlink" x="0px"
	 y="0px" viewBox="0 0 100 23">
<style type="text/css">
	.st0{fill-rule:evenodd;clip-rule:evenodd;}
	.st1{fill-rule:evenodd;clip-rule:evenodd;fill:#BB0231;}
</style>
<path class="st0" d="M64.6,1.7c0.1,2.9-1.2,6.7-1.9,10c-0.3,1.1-0.3,2.7-1.2,2.8c-0.6,0.1-1-0.4-1.1-1c-2.8,2-5.6,0-5.2-3.5
	c0.4-3.1,3.9-5.6,6.5-3.5c0.7-1.5,0.6-3.8,1.7-5C63.8,1.6,64.4,1.5,64.6,1.7z M57.2,11.1c1.8,4.4,6.2-3.7,1.9-3.2
	C58.2,8.2,56.9,9.5,57.2,11.1z"/>
<path class="st0" d="M1.7,12.6c0.4-0.6,1.2-0.4,1.9-0.5c5.2-0.1,10-0.1,14.6,0c1.4-0.1,3.6-0.4,3.7-1.6c0-3.2-5.9-0.3-7.8-1.5
	c-1.5-0.6-2.8-3.3-1.1-5.1c0.8-0.9,3.3-1.7,5.3-1.8c1.5-0.1,2.9,0.3,2.8,1.2c-0.1,1.3-1.6,0.8-2.9,0.9c-1.8,0.2-3.8,0.6-3.7,1.8
	c0.1,1.8,3.7,0.4,6,0.7c2.9,0,4.7,3,3,5.6c-1.6,2.2-6.5,1.9-10.8,1.9c-1.5,0-3.7,0-6.3,0C4.2,14.4,0.5,14.8,1.7,12.6z"/>
<path class="st0" d="M38.5,10.7c0.6,1.6,2.7,1.8,4.4,1.5c0.9-0.2,1.9-0.9,2.5-0.1c0.1,1.6-1.7,2.1-3.2,2.3c-7.2,0.5-8.7-7.4-1.4-8.6
	c1.5-0.1,2.9,0.1,3.7,1.7C45.2,10.1,41.1,11.5,38.5,10.7z M38.8,9c1.5,0.3,3.4,0,3.8-1.1C41.5,7.2,39,7.9,38.8,9z"/>
<path class="st0" d="M47.9,11.3c0.5,1.2,2.1,1.2,3.6,0.7c1.4-0.5,2.9-2,3.4-0.8c-0.2,2.5-4.4,3.4-6.6,2.8c-1.9-0.7-3.4-2.5-2.6-4.6
	c0.5-1.4,2.9-3.2,5-3.4c1.5-0.1,3.1,0.5,3.3,1.8C54,10,50.1,11.8,47.9,11.3z M47.9,9.3c1.7,0.3,3.4-0.3,4.1-1.4
	C50.4,7.4,48.4,8.2,47.9,9.3z"/>
<path class="st0" d="M27.8,13.8c-0.3,1.1-0.7,2.9-1,4.4c-0.3,1.4-0.1,3.5-1.9,3.2c-1.2-0.7,0.7-6,0.8-7.5c0.2-1.1,0.5-2.4,0.8-3.8
	c0.4-2.1,0.3-3.8,2.5-3.9C37.7,5.5,36.7,15.9,27.8,13.8z M32.8,10.6c0.5-2-1.7-2.9-3.8-2.5c-0.4,1-0.7,2.5-0.7,3.6
	C30,12.3,32.4,11.9,32.8,10.6z"/>
<path class="st1" d="M79.5,8.9c-0.3,0.2-0.5,0.4-0.8,0.6c1,2.4,3,3,5.5,2.8c5,0.1,9.8-0.1,13.7,0.2c0.6,0.1,0.8,1.2,0.3,1.5
	c-3.2,0.4-6.6,0.2-9.9,0.2c-4.7,0-8.4,0.9-11.5-3.5c-2,1-4,2.7-6.1,3.4c-8.4,1.6-7.2-9.4,0.6-8.3c1,0.2,2,1.8,1.2,3
	c-1.2,1.8-3.5,2.4-5.7,2.3c0.5,2.1,3.5,1.4,5,0.7c0.5-0.4,3.2-1.8,3.8-2.6C75.2,8,72.9,6,75.1,5.3C76,6.1,76.5,7.2,77.5,8
	c1.2-0.2,2.5-2.1,3.6-2.1C83.6,6.4,80.3,8.2,79.5,8.9z M67.2,9.6c1.8-0.1,3.6-0.4,3.8-2.1C69.3,6.7,67.3,8.2,67.2,9.6z"/>
</svg>
